<svg width="32" height="36" viewBox="0 0 32 36" fill="none" xmlns="http://www.w3.org/2000/svg">
<path d="M21 35V20.6838C21 20.2092 20.8244 19.754 20.5118 19.4184C20.1993 19.0828 19.7754 18.8943 19.3333 18.8943H12.6667C12.2246 18.8943 11.8007 19.0828 11.4882 19.4184C11.1756 19.754 11 20.2092 11 20.6838V35M1 15.3153C0.999884 14.7946 1.10556 14.2802 1.30965 13.808C1.51374 13.3357 1.81133 12.9169 2.18167 12.5809L13.8483 1.84551C14.45 1.29955 15.2123 1 16 1C16.7877 1 17.55 1.29955 18.1517 1.84551L29.8183 12.5809C30.1887 12.9169 30.4863 13.3357 30.6904 13.808C30.8944 14.2802 31.0001 14.7946 31 15.3153V31.421C31 32.3702 30.6488 33.2805 30.0237 33.9517C29.3986 34.6229 28.5507 35 27.6667 35H4.33333C3.44928 35 2.60143 34.6229 1.97631 33.9517C1.35119 33.2805 1 32.3702 1 31.421V15.3153Z" stroke="white" stroke-width="2" stroke-linecap="round" stroke-linejoin="round"/>
</svg>
