<svg width="44" height="44" viewBox="0 0 44 44" fill="none" xmlns="http://www.w3.org/2000/svg">
<path d="M22 27.5C25.0376 27.5 27.5 25.0376 27.5 22C27.5 18.9624 25.0376 16.5 22 16.5C18.9624 16.5 16.5 18.9624 16.5 22C16.5 25.0376 18.9624 27.5 22 27.5Z" stroke="#FFCF82" stroke-width="4" stroke-linecap="round" stroke-linejoin="round"/>
<path d="M5.5 12.8333V9.16667C5.5 8.19421 5.88631 7.26158 6.57394 6.57394C7.26158 5.88631 8.19421 5.5 9.16667 5.5H12.8333" stroke="#FFCF82" stroke-width="4" stroke-linecap="round" stroke-linejoin="round"/>
<path d="M31.1667 5.5H34.8333C35.8058 5.5 36.7384 5.88631 37.426 6.57394C38.1137 7.26158 38.5 8.19421 38.5 9.16667V12.8333" stroke="#FFCF82" stroke-width="4" stroke-linecap="round" stroke-linejoin="round"/>
<path d="M38.5 31.1667V34.8334C38.5 35.8058 38.1137 36.7384 37.426 37.4261C36.7384 38.1137 35.8058 38.5 34.8333 38.5H31.1667" stroke="#FFCF82" stroke-width="4" stroke-linecap="round" stroke-linejoin="round"/>
<path d="M12.8333 38.5H9.16667C8.19421 38.5 7.26158 38.1137 6.57394 37.4261C5.88631 36.7384 5.5 35.8058 5.5 34.8334V31.1667" stroke="#FFCF82" stroke-width="4" stroke-linecap="round" stroke-linejoin="round"/>
</svg>
