<svg width="38" height="38" viewBox="0 0 38 38" fill="none" xmlns="http://www.w3.org/2000/svg">
<path d="M29.7059 33.2059C29.7059 30.4211 28.5996 27.7504 26.6305 25.7813C24.6614 23.8121 21.9907 22.7059 19.2059 22.7059M19.2059 22.7059C16.4211 22.7059 13.7504 23.8121 11.7813 25.7813C9.81213 27.7504 8.70589 30.4211 8.70589 33.2059M19.2059 22.7059C23.0719 22.7059 26.2059 19.5719 26.2059 15.7059C26.2059 11.8399 23.0719 8.70587 19.2059 8.70587C15.3399 8.70587 12.2059 11.8399 12.2059 15.7059C12.2059 19.5719 15.3399 22.7059 19.2059 22.7059ZM36.7059 19.2059C36.7059 28.8709 28.8709 36.7059 19.2059 36.7059C9.5409 36.7059 1.70589 28.8709 1.70589 19.2059C1.70589 9.54089 9.5409 1.70587 19.2059 1.70587C28.8709 1.70587 36.7059 9.54089 36.7059 19.2059Z" stroke="white" stroke-width="2" stroke-linecap="round" stroke-linejoin="round"/>
</svg>
